<?xml version="1.0" encoding="UTF-8" standalone="no"?>
<!-- Created with Inkscape (http://www.inkscape.org/) -->

<svg
   width="32"
   height="32"
   viewBox="0 0 32 32"
   version="1.1"
   id="svg1"
   xml:space="preserve"
   xmlns="http://www.w3.org/2000/svg"
   xmlns:svg="http://www.w3.org/2000/svg"><defs
     id="defs1"><linearGradient
       id="swatch7"><stop
         style="stop-color:#aeb8b5;stop-opacity:1;"
         offset="0"
         id="stop7" /></linearGradient></defs><g
     id="layer2"
     transform="translate(-5518.8618,-365.94941)"><path
       style="opacity:0.994001;fill:#000000;fill-opacity:1;stroke:none;stroke-width:4.37569;stroke-linecap:round;stroke-miterlimit:2.2;stroke-opacity:1;paint-order:markers fill stroke"
       id="path8"
       d="m 5547.5476,372.84501 a 15.597254,15.634172 0 0 1 -3.5605,21.79276 15.597254,15.634172 0 0 1 -21.75,-3.51579 15.597254,15.634172 0 0 1 3.4544,-21.80991 15.597254,15.634172 0 0 1 21.7668,3.40936" /><path
       style="mix-blend-mode:normal;fill:#b5103b;fill-opacity:1;stroke:#b5103b;stroke-width:0.317903;stroke-linecap:round;stroke-miterlimit:7.2;stroke-dasharray:none;stroke-opacity:1"
       d="m 5529.5685,374.01274 c -0.056,-0.98988 1.1841,-1.76557 1.8546,-1.45265 l 3.3381,3.33815 3.3382,-3.33815 c 1.36,-0.12359 1.9781,0.49454 1.8545,1.85453 l -4.4508,4.45089 c -0.4791,0.46648 -0.9719,0.52195 -1.4836,0 z"
       id="path4-56-9" /><path
       style="opacity:0.79;fill:#ececec;fill-opacity:0;stroke:#b5103b;stroke-width:1.09737;stroke-linecap:round;stroke-miterlimit:7.2;stroke-dasharray:none;stroke-opacity:1"
       id="path3-3-7"
       d="m -369.68376,5526.0709 a 15.090611,15.090611 0 0 1 -3.44488,21.0351 15.090611,15.090611 0 0 1 -21.04342,-3.3935 15.090611,15.090611 0 0 1 3.34219,-21.0517 15.090611,15.090611 0 0 1 21.05974,3.2908"
       transform="rotate(-90)" /><path
       style="mix-blend-mode:normal;fill:#b5103b;fill-opacity:1;stroke:#b5103b;stroke-width:0.317903;stroke-linecap:round;stroke-miterlimit:7.2;stroke-dasharray:none;stroke-opacity:1"
       d="m 5526.1994,387.39638 c -0.9899,0.0559 -1.7656,-1.18402 -1.4526,-1.85451 l 3.338,-3.33817 -3.338,-3.33816 c -0.1236,-1.36 0.4944,-1.97818 1.8544,-1.85454 l 4.451,4.4509 c 0.4664,0.47911 0.5219,0.97181 0,1.4836 z"
       id="path4-5-2-2" /><path
       style="display:inline;mix-blend-mode:normal;fill:#b5103b;fill-opacity:1;stroke:#b5103b;stroke-width:0.317903;stroke-linecap:round;stroke-miterlimit:7.2;stroke-dasharray:none;stroke-opacity:1"
       d="m 5539.9539,390.02371 c 0.056,0.98989 -1.184,1.76559 -1.8545,1.45267 l -3.3382,-3.33817 -3.3381,3.33817 c -1.36,0.12359 -1.9783,-0.49455 -1.8546,-1.85455 l 4.451,-4.45088 c 0.4791,-0.46649 0.9717,-0.52196 1.4836,0 z"
       id="path4-5-3-91-0" /><path
       style="mix-blend-mode:normal;fill:#b5103b;fill-opacity:1;stroke:#b5103b;stroke-width:0.317903;stroke-linecap:round;stroke-miterlimit:7.2;stroke-dasharray:none;stroke-opacity:1"
       d="m 5542.8529,376.74994 c 0.9898,-0.0558 1.7656,1.18403 1.4526,1.85452 l -3.3381,3.33818 3.3381,3.33815 c 0.1235,1.36 -0.4945,1.97817 -1.8545,1.85454 L 5538,382.68444 c -0.4664,-0.47912 -0.5219,-0.97182 0,-1.4836 z"
       id="path4-5-3-9-2-2" /></g></svg>
